<svg width="29" height="36" viewBox="0 0 29 36" fill="none" xmlns="http://www.w3.org/2000/svg">
<path d="M1.38095 8.28564H27.619V30.2142C27.619 32.9756 25.3805 35.2142 22.619 35.2142H6.38095C3.61953 35.2142 1.38095 32.9756 1.38095 30.2142V8.28564Z" fill="#D9D9D9"/>
<path d="M0 5.76196C0 4.10511 1.34315 2.76196 3 2.76196H26C27.6569 2.76196 29 4.10511 29 5.76196V6.90482H0V5.76196Z" fill="#D9D9D9"/>
<rect x="8.9762" y="1.38086" width="1.38095" height="1.38095" fill="#D9D9D9"/>
<rect x="18.6429" y="1.38086" width="1.38095" height="1.38095" fill="#D9D9D9"/>
<path d="M8.9762 1.38095C8.9762 0.618274 9.59447 0 10.3571 0H18.6429C19.4055 0 20.0238 0.618274 20.0238 1.38095V1.38095H8.9762V1.38095Z" fill="#D9D9D9"/>
<rect x="3.45239" y="10.3572" width="1.38095" height="22.0952" fill="#7B7B7B"/>
<rect x="24.1667" y="10.3572" width="1.38095" height="22.0952" fill="#7B7B7B"/>
<rect x="6.90475" y="10.3572" width="1.38095" height="22.0952" fill="#7B7B7B"/>
<rect x="20.7143" y="10.3572" width="1.38095" height="22.0952" fill="#7B7B7B"/>
<rect x="10.3571" y="10.3572" width="1.38095" height="22.0952" fill="#7B7B7B"/>
<rect x="17.2619" y="10.3572" width="1.38095" height="22.0952" fill="#7B7B7B"/>
<rect x="13.8095" y="10.3572" width="1.38095" height="22.0952" fill="#7B7B7B"/>
</svg>
